<svg width="97" height="60" viewBox="0 0 97 60" fill="none" xmlns="http://www.w3.org/2000/svg">
<rect x="1.42024" y="1.42024" width="57.1594" height="57.1594" rx="28.5797" stroke="url(#paint0_linear_159_3)" stroke-width="0.985507"/>
<path d="M95.8846 29.8558C96.077 29.6633 96.077 29.3513 95.8846 29.1589L92.7488 26.023C92.5563 25.8306 92.2443 25.8306 92.0519 26.023C91.8595 26.2155 91.8595 26.5275 92.0519 26.7199L94.8393 29.5073L92.0519 32.2948C91.8595 32.4872 91.8595 32.7992 92.0519 32.9916C92.2443 33.1841 92.5563 33.1841 92.7488 32.9916L95.8846 29.8558ZM29.5072 30.0001H95.5362V29.0146H29.5072V30.0001Z" fill="url(#paint1_linear_159_3)"/>
<defs>
<linearGradient id="paint0_linear_159_3" x1="-7.62237" y1="-0.507661" x2="62.7562" y2="4.93936" gradientUnits="userSpaceOnUse">
<stop offset="0.270833" stop-color="#A3A3A3"/>
<stop offset="0.412103" stop-color="#CCCCCC"/>
<stop offset="0.551716" stop-color="white"/>
<stop offset="0.677083" stop-color="#CCCCCC"/>
<stop offset="0.833333" stop-color="#A3A3A3"/>
</linearGradient>
<linearGradient id="paint1_linear_159_3" x1="19.798" y1="29.4826" x2="22.7631" y2="44.6352" gradientUnits="userSpaceOnUse">
<stop offset="0.270833" stop-color="#A3A3A3"/>
<stop offset="0.412103" stop-color="#CCCCCC"/>
<stop offset="0.551716" stop-color="white"/>
<stop offset="0.677083" stop-color="#CCCCCC"/>
<stop offset="0.833333" stop-color="#A3A3A3"/>
</linearGradient>
</defs>
</svg>
